#!OML:ASF E:\Mandelcareful walks\Project 1\Capture day 1\Session 1\Subject1.ASF
:FULLY-SPECIFIED
:DEGREES
1646
root -23.8613 15.8545 3.04735 -530.741 3.91173 538.047
lowerback 29.1887 1.69045 -2.56522
upperback 8.38492 3.81294 3.09415
thorax -6.96732 2.66409 3.52264
lowerneck -26.7603 -7.69897 -10.2391
upperneck 30.1223 -16.1646 17.1662
head 18.4245 -6.06501 5.50828
rclavicle 6.36111e-015 -1.59028e-015
rhumerus -23.0227 -10.0261 -70.0457
rradius 43.0727
rwrist -23.6959
rhand -14.1619 -21.7587
rfingers 7.12502
rthumb 11.973 -51.3963
lclavicle 6.36111e-015 -1.59028e-015
lhumerus -26.0087 -11.0665 91.1069
lradius 31.0346
lwrist 18.8363
lhand -28.6924 -16.5654
lfingers 7.12502
lthumb -2.05461 13.4044
rfemur -20.7902 7.04385 3.59259
rtibia 50.2102
rfoot -19.0075 -2.89341
rtoes -1.80457
lfemur -36.1326 11.6634 -23.2389
ltibia 52.8651
lfoot -21.5261 2.0264
ltoes -0.490663
1647
root -23.9657 15.8719 2.97169 -531.395 4.07243 537.922
lowerback 30.0309 1.51372 -2.52946
upperback 8.50833 3.65714 3.0114
thorax -7.20439 2.62075 3.43695
lowerneck -26.7807 -7.6887 -10.1142
upperneck 30.2018 -16.2845 17.1645
head 18.4861 -6.10502 5.45531
rclavicle 2.38542e-015 1.66979e-014
rhumerus -23.1169 -10.0542 -70.2605
rradius 43.2471
rwrist -23.4589
rhand -14.1642 -21.9509
rfingers 7.12502
rthumb 11.9708 -51.5886
lclavicle 2.38542e-015 1.66979e-014
lhumerus -25.9994 -12.0479 91.1845
lradius 31.888
lwrist 19.7925
lhand -30.7679 -16.3396
lfingers 7.12502
lthumb -4.059 13.6015
rfemur -21.2574 5.56094 3.64238
rtibia 52.4994
rfoot -17.5836 -3.79858
rtoes -0.103631
lfemur -34.9498 11.9293 -23.5934
ltibia 52.5554
lfoot -21.6579 1.62817
ltoes 0.417933
1648
root -24.0707 15.8845 2.89712 -531.881 4.11332 537.761
lowerback 30.6795 1.28188 -2.50887
upperback 8.60347 3.42432 3.01813
thorax -7.37936 2.53555 3.49744
lowerneck -26.7268 -7.69365 -10.241
upperneck 30.2121 -16.2968 17.2215
head 18.5044 -6.12743 5.50314
rclavicle 1.90833e-014 3.26007e-014
rhumerus -23.1225 -9.78901 -70.3117
rradius 43.2891
rwrist -23.5194
rhand -14.284 -21.8736
rfingers 7.12502
rthumb 11.8553 -51.518
lclavicle 1.90833e-014 3.26007e-014
lhumerus -25.9431 -12.6242 91.3724
lradius 32.8004
lwrist 20.4516
lhand -30.3655 -15.0243
lfingers 7.12502
lthumb -3.67044 14.9238
rfemur -22.0714 2.52015 3.53304
rtibia 54.8658
rfoot -16.2793 -3.8457
rtoes 1.64971
lfemur -33.9938 12.0125 -24.0244
ltibia 52.2705
lfoot -21.9065 1.38729
ltoes 0.749124
1649
root -24.1694 15.8935 2.82716 -532.186 4.24098 537.614
lowerback 31.1743 1.05952 -2.59395
upperback 8.61324 3.14355 3.07518
thorax -7.58002 2.41605 3.70117
lowerneck -26.813 -9.9735 -9.31587
upperneck 31.3084 -15.1634 16.0908
head 18.6896 -4.45456 5.55534
rclavicle 1.74931e-014 3.97569e-015
rhumerus -23.2834 -9.66294 -70.3441
rradius 43.5044
rwrist -23.3452
rhand -14.2547 -21.709
rfingers 7.12502
rthumb 11.8835 -51.3517
lclavicle 1.74931e-014 3.97569e-015
lhumerus -25.9769 -12.9355 91.6029
lradius 33.7227
lwrist 20.9222
lhand -28.4184 -13.6309
lfingers 7.12502
lthumb -1.79005 16.3413
rfemur -23.1721 0.0662492 3.5846
rtibia 57.1354
rfoot -15.3485 -5.112
rtoes 5.97854
lfemur -33.2696 12.0657 -24.483
ltibia 51.9958
lfoot -22.3024 1.36794
ltoes 1.66433
1650
root -24.2574 15.902 2.75757 -532.632 4.48024 537.48
lowerback 31.8183 0.877824 -2.78316
upperback 8.66096 2.8929 3.09522
thorax -7.80641 2.31844 3.91348
lowerneck -26.7797 -9.94622 -9.48618
upperneck 31.3701 -15.0741 16.1257
head 18.7226 -4.44042 5.63274
rclavicle -2.8625e-014 -1.03368e-014
rhumerus -23.5237 -9.44734 -70.4184
rradius 43.9091
rwrist -23.0809
rhand -13.6198 -21.4597
rfingers 7.12502
rthumb 12.4957 -51.0661
lclavicle -2.8625e-014 -1.03368e-014
lhumerus -26.021 -13.382 91.6804
lradius 34.7552
lwrist 21.5442
lhand -27.0068 -13.1914
lfingers 7.12502
lthumb -0.426634 16.7879
rfemur -24.1534 -1.99897 3.79437
rtibia 59.2075
rfoot -14.8101 -6.83177
rtoes 13.6524
lfemur -32.3814 12.1628 -24.8572
ltibia 51.7301
lfoot -22.6029 1.49726
ltoes 3.07044
